<?xml version="1.0" standalone="no"?><!DOCTYPE svg PUBLIC "-//W3C//DTD SVG 1.1//EN" "http://www.w3.org/Graphics/SVG/1.1/DTD/svg11.dtd"><svg t="1688960169470" class="icon" viewBox="0 0 2443 1024" version="1.1" xmlns="http://www.w3.org/2000/svg" p-id="1284" xmlns:xlink="http://www.w3.org/1999/xlink" width="477.1484375" height="200"><path d="M2278.523266 1015.21156c12.072786-230.480462 13.444694-373.981988 4.115722-430.504577-15.557431-92.384252-69.884969-126.846569-162.982612-103.441827-40.608462-9.328971-81.765688-9.328971-123.471677 0a315.675919 315.675919 0 0 0-157.769364 0h-123.471676a319.928832 319.928832 0 0 0-157.769364 0 212.371283 212.371283 0 0 0-129.233688 5.762012c-47.193618-19.755468-95.567077-21.676139-145.147815-5.762012a246.202522 246.202522 0 0 0-130.331214 0l-170.939676-6.859538c-22.142587-17.011653-49.745366-17.011653-82.863214 0h-164.628902c-44.806499-7.490615-87.884395-3.292578-129.233687 12.62155-49.196603-19.398772-99.518171-21.676139-150.909827-6.859538a232.702953 232.702953 0 0 0-125.666728 0c-107.557549-26.340624-163.531376 27.163769-163.531376 135.544462v405.26148c-138.288277 13.170312-164.35452-70.241665-164.628902-190.695144C-0.132801 599.057135 0.141581 368.02791 0.882411 137.190751c0.274382-110.026983 65.851561-137.190751 167.098335-137.190751h2093.530867c121.825387 0 180.543029 18.383561 180.543029 151.184208-0.192067 237.257685 0.192067 474.762314 1.097526 712.568763 0.274382 110.026983-49.388671 175.32978-164.628902 151.458589zM273.892006 154.202405a29.633202 29.633202 0 0 0-29.633202-29.633203h-2.195052a29.633202 29.633202 0 0 0-29.633202 29.633203v179.445502c0 16.353138 13.280065 29.633202 29.633202 29.633203h2.195052a29.633202 29.633202 0 0 0 29.633202-29.633203V154.202405z m336.336846 215.938242c9.685667 0.054876 19.042076-13.170312 26.066243-36.767121 6.996728-23.651686 11.057575-55.699445 11.304518-89.173988 0.246943-33.474543-3.374892-65.632055-10.069801-89.338618-6.667471-23.734-15.859251-37.068941-25.51748-37.151255-9.713105-0.054876-19.069514 13.170312-26.066243 36.767121-7.024166 23.651686-11.085013 55.699445-11.331956 89.173989-0.246943 33.474543 3.374892 65.632055 10.069801 89.338617 6.667471 23.734 15.859251 37.068941 25.51748 37.151255z m151.348837-216.816263a29.358821 29.358821 0 0 0-29.413697-29.303945h-2.195052a29.358821 29.358821 0 0 0-29.303944 29.413697l0.329258 181.091792a29.358821 29.358821 0 0 0 29.413697 29.303945h2.195052a29.358821 29.358821 0 0 0 29.303944-29.413697l-0.329258-181.091792z m-364.104254 4.390104a27.986913 27.986913 0 0 0-28.014351-27.932037h-6.036393a27.986913 27.986913 0 0 0-27.959476 28.041789l0.329258 177.799214a27.986913 27.986913 0 0 0 28.014352 27.932037h6.036393a27.986913 27.986913 0 0 0 27.959475-28.041789l-0.329258-177.799214z m118.916943-4.444981a22.499283 22.499283 0 0 0-22.581597-22.416968l-12.072786 0.054876a22.499283 22.499283 0 0 0-22.416969 22.581598l0.658515 186.579422a22.499283 22.499283 0 0 0 22.581598 22.416968l12.072786-0.054876a22.499283 22.499283 0 0 0 22.416969-22.581598l-0.658516-186.579422z m368.000472 2.743816a26.340624 26.340624 0 0 0-26.669882-26.011367l-8.231445 0.109753a26.340624 26.340624 0 0 0-26.011367 26.669882l2.195052 179.994266a26.340624 26.340624 0 0 0 26.669882 26.011366l8.231446-0.109753a26.340624 26.340624 0 0 0 26.011366-26.669882l-2.195052-179.994265z m794.608832 79.131625a68.046613 68.046613 0 1 0-136.093225 0 68.046613 68.046613 0 0 0 136.093225 0z m260.936809-0.823145a69.144139 69.144139 0 1 0-138.288277 0 69.144139 69.144139 0 0 0 138.288277 0z m259.839284 0a68.595376 68.595376 0 1 0-137.190752 0 68.595376 68.595376 0 0 0 137.190752 0z" fill="#357DA2" p-id="1285"></path><path d="M981.521902 474.405618a4191.945724 4191.945724 0 0 0-0.548763 546.567954l-83.411977-5.762012 1.097526-540.805942c33.117847-17.011653 60.720627-17.011653 82.863214 0z" fill="#468299" p-id="1286"></path><path d="M328.219544 480.16763l13.170312 345.446312a519.952948 519.952948 0 0 1 8.505827 195.35963h-185.207515V615.712092c0-108.380694 55.973827-161.885087 163.531376-135.544462z" fill="#FFC133" p-id="1287"></path><path d="M453.886272 480.16763l-2.195052 253.80289-27.43815 89.173988-82.863214 2.469434-13.170312-345.446312a232.702953 232.702953 0 0 1 125.666728 0z" fill="#1D4D59" p-id="1288"></path><path d="M604.796099 487.027168l13.719075 329.257803c17.917112 66.949087 24.419954 135.187766 19.481086 204.688601h-212.645664l2.469433-184.109988c33.474543-23.953505 41.431607-58.251193 23.871191-102.893064l2.195052-253.80289c51.391655-14.816601 101.713223-12.539235 150.909827 6.859538z" fill="#FFC133" p-id="1289"></path><path d="M734.029786 474.405618a1968.824474 1968.824474 0 0 1-12.89593 355.598428l-102.618682-13.719075-13.719075-329.257803c41.349292-15.914127 84.427188-20.112164 129.233687-12.62155z" fill="#1D4D59" p-id="1290"></path><path d="M734.029786 474.405618h164.628902L897.561162 1015.21156a534.056157 534.056157 0 0 1-189.872 0 444.360844 444.360844 0 0 1 13.444694-185.207514c15.008668-117.243216 19.28902-235.776025 12.89593-355.598428zM981.521902 474.405618l170.939676 6.859538-5.762011 225.267214-5.48763 94.661618a24.419954 24.419954 0 0 0 10.426497 21.401757l20.304231 14.267839a413.053914 413.053914 0 0 1 0 178.347976l-190.969526 5.762012c-11.71609-182.381385-11.524023-364.570703 0.548763-546.567954z" fill="#FFC133" p-id="1291"></path><path d="M1282.792792 481.265156l-1.097526 211.548139-33.200162 136.093225-74.357387-12.621549a244.912929 244.912929 0 0 1-27.43815-109.752601l5.762011-225.267214a246.202522 246.202522 0 0 1 130.331214 0z" fill="#1D4D59" p-id="1292"></path><path d="M1427.940607 487.027168l4.115723 275.75341a526.428351 526.428351 0 0 1 22.224901 258.192994h-198.926589a545.799685 545.799685 0 0 1 1.097526-184.109988c30.181965-42.446818 38.605477-90.463581 25.243098-144.050289l1.097526-211.548139c49.580738-15.914127 97.954197-13.993457 145.147815 5.762012z" fill="#FFC133" p-id="1293"></path><path d="M1557.174295 481.265156c8.231445 116.337757 2.743815 231.221292-16.46289 344.623168-72.24465 5.844326-108.463008-15.173297-108.655075-63.107746l-4.115723-275.75341a212.371283 212.371283 0 0 1 129.233688-5.762012z" fill="#1D4D59" p-id="1294"></path><path d="M1714.943659 481.265156l7.957064 341.879352c20.304231 64.205272 26.807073 130.139147 19.481086 197.829064l-211.548138-5.762012a596.038939 596.038939 0 0 1 9.877734-189.323236c19.206705-113.401875 24.694335-228.28541 16.46289-344.623168a319.928832 319.928832 0 0 1 157.769364 0z" fill="#FFC133" p-id="1295"></path><path d="M1838.415335 481.265156c2.002985 90.353829 1.289593 180.625343-2.195052 270.814543-3.018197 76.552439-39.785318 166.275191-24.145572 263.131861l-7.957063 5.762012 5.213248-191.243907a9.630791 9.630791 0 0 0-3.374892-7.545492 11.935595 11.935595 0 0 0-8.423513-2.881006l-74.631768 3.841341-7.957064-341.879352h123.471676z" fill="#1D4D59" p-id="1296"></path><path d="M1996.184699 481.265156l7.957064 341.879352a455.829991 455.829991 0 0 1 19.481087 197.829064l-211.548139-5.762012c-15.639746-96.85667 21.127376-186.579422 24.145572-263.131861 3.484645-90.1892 4.198037-180.460714 2.195052-270.814543a315.675919 315.675919 0 0 1 157.769364 0z" fill="#FFC133" p-id="1297"></path><path d="M2119.656376 481.265156c8.231445 120.179098 1.371908 239.068603-20.578613 356.695954-29.276506-14.267838-60.912694-19.206705-94.936-14.816602l-7.957064-341.879352c41.705988-9.328971 82.863214-9.328971 123.471677 0z" fill="#1D4D59" p-id="1298"></path><path d="M2278.523266 1015.21156a469.741133 469.741133 0 0 1-186.305041-1.097526 370.415029 370.415029 0 0 1 6.859538-176.152924c21.95052-117.62735 28.810058-236.516855 20.578613-356.695954 93.097644-23.404742 147.425181 11.057575 162.982612 103.441827 9.328971 56.52259 7.957064 200.024116-4.115722 430.504577z" fill="#FFC133" p-id="1299"></path><path d="M1281.695266 692.813295c13.362379 53.586708 4.938867 101.60347-25.243098 144.050289l-7.957064-7.957064 33.200162-136.093225z" fill="#91613F" p-id="1300"></path><path d="M1146.699567 706.53237a244.912929 244.912929 0 0 0 27.43815 109.752601l-2.195052 20.578613-20.304231-14.267839a24.419954 24.419954 0 0 1-10.426497-21.401757l5.48763-94.661618z" fill="#A08C41" p-id="1301"></path><path d="M451.69122 733.97052c17.560416 44.641871 9.603353 78.939558-23.871191 102.893064l-3.566959-13.719076 27.43815-89.173988z" fill="#91613F" p-id="1302"></path><path d="M1432.05633 762.780578c0.192067 47.934449 36.410425 68.952072 108.655075 63.107746a596.038939 596.038939 0 0 0-9.877734 189.323236l-76.55244 5.762012c14.075771-88.158777 6.667471-174.232254-22.224901-258.192994z" fill="#357DA2" p-id="1303"></path><path d="M618.515174 816.284971l102.618682 13.719075a444.360844 444.360844 0 0 0-13.444694 185.207514l-69.692902 5.762012c4.938867-69.500835-1.563975-137.739514-19.481086-204.688601zM1174.137717 816.284971l74.357387 12.621549 7.957064 7.957064a545.799685 545.799685 0 0 0-1.097526 184.109988l-83.411977-5.762012a413.053914 413.053914 0 0 0 0-178.347976l2.195052-20.578613z" fill="#468299" p-id="1304"></path><path d="M1804.117648 1020.973572h-61.735839a478.521341 478.521341 0 0 0-19.481086-197.829064l74.631768-3.841341a11.935595 11.935595 0 0 1 8.423513 2.881006 9.630791 9.630791 0 0 1 3.374892 7.545492l-5.213248 191.243907zM341.389856 825.613942l82.863214-2.469434 3.566959 13.719076-2.469433 184.109988h-75.454913a519.952948 519.952948 0 0 0-8.505827-195.35963zM2004.141763 823.144508c34.023306-4.390104 65.659494 0.548763 94.936 14.816602a370.415029 370.415029 0 0 0-6.859538 176.152924l-68.595375 6.859538c8.039378-67.49785 1.563975-133.431725-19.481087-197.829064z" fill="#357DA2" p-id="1305"></path><path d="M212.43055 124.569202m29.633202 0l2.195052 0q29.633202 0 29.633202 29.633203l0 179.445502q0 29.633202-29.633202 29.633203l-2.195052 0q-29.633202 0-29.633202-29.633203l0-179.445502q0-29.633202 29.633202-29.633203Z" fill="#FFC133" p-id="1306"></path><path d="M611.988016 117.71274a36.49274 126.215491 0.4 1 0-1.762286 252.424832 36.49274 126.215491 0.4 1 0 1.762286-252.424832Z" fill="#FFC133" p-id="1307"></path><path d="M700.620398 124.073778m29.358776-0.051241l2.195049-0.003831q29.358776-0.051241 29.410017 29.307536l0.316064 181.091516q0.051241 29.358776-29.307535 29.410017l-2.195049 0.003831q-29.358776 0.051241-29.410017-29.307536l-0.316064-181.091516q-0.051241-29.358776 29.307535-29.410017Z" fill="#FFC133" p-id="1308"></path><path d="M335.423886 129.836743m27.986871-0.048846l6.036384-0.010536q27.986871-0.048846 28.035717 27.938024l0.310318 177.798943q0.048846 27.986871-27.938025 28.035717l-6.036383 0.010536q-27.986871 0.048846-28.035717-27.938024l-0.310318-177.798943q-0.048846-27.986871 27.938024-28.035717Z" fill="#FEC129" p-id="1309"></path><path d="M459.244278 130.98029m22.499147-0.078537l12.072712-0.042142q22.499146-0.078537 22.577684 22.420609l0.651283 186.578286q0.078537 22.499146-22.420609 22.577683l-12.072712 0.042142q-22.499146 0.078537-22.577684-22.420609l-0.651283-186.578285q-0.078537-22.499146 22.420609-22.577684Z" fill="#FEC129" p-id="1310"></path><path d="M823.156657 130.4376m26.338658-0.321804l8.230831-0.100563q26.338658-0.321803 26.660462 26.016855l2.19899 179.980833q0.321803 26.338658-26.016855 26.660462l-8.230831 0.100563q-26.338658 0.321803-26.660462-26.016855l-2.19899-179.980833q-0.321803-26.338658 26.016855-26.660462Z" fill="#FEC129" p-id="1311"></path><path d="M1610.95307 235.144948m-68.046613 0a68.046613 68.046613 0 1 0 136.093225 0 68.046613 68.046613 0 1 0-136.093225 0Z" fill="#FFC133" p-id="1312"></path><path d="M1870.792353 234.321803m-69.144139 0a69.144139 69.144139 0 1 0 138.288277 0 69.144139 69.144139 0 1 0-138.288277 0Z" fill="#FFC133" p-id="1313"></path><path d="M2131.180399 234.321803m-68.595376 0a68.595376 68.595376 0 1 0 137.190752 0 68.595376 68.595376 0 1 0-137.190752 0Z" fill="#FFC133" p-id="1314"></path></svg>